<svg width="16" height="16" viewBox="0 0 16 16" fill="none" xmlns="http://www.w3.org/2000/svg">
<g clip-path="url(#clip0_20114_68061)">
<path d="M8.75098 1.41211C11.9313 1.75488 14.4558 4.25269 14.8086 7.38477H14.5039C14.1161 7.38477 13.7953 7.68076 13.7568 8.05859L13.7539 8.13477L13.7568 8.21191C13.7954 8.58962 14.1162 8.88477 14.5039 8.88477H14.8086C14.4578 12.0144 11.932 14.5115 8.75098 14.8564V14.6377L8.74707 14.5605C8.70838 14.183 8.38859 13.8877 8.00098 13.8877C7.58733 13.8877 7.25098 14.2241 7.25098 14.6377V14.8564C4.0705 14.5136 1.54589 12.0171 1.19336 8.88477H1.49805C1.91169 8.88477 2.24805 8.54841 2.24805 8.13477C2.24786 7.72129 1.91157 7.38477 1.49805 7.38477H1.19336C1.54633 4.25508 4.0706 1.75789 7.25098 1.41309V1.63281C7.25108 2.04637 7.5874 2.38281 8.00098 2.38281C8.38882 2.38279 8.70871 2.08686 8.74707 1.70898L8.75098 1.63281V1.41211Z" stroke="#37474F"/>
<path d="M5.62953 10.7553C5.69453 10.7553 5.75703 10.7303 5.80703 10.6828L7.38703 9.10029C7.56453 9.21279 7.77453 9.28029 7.99953 9.28029C8.63203 9.28029 9.14703 8.76529 9.14703 8.13279C9.14703 7.58529 8.76203 7.13029 8.24953 7.01529V3.48779C8.24953 3.35029 8.13703 3.23779 7.99953 3.23779C7.86203 3.23779 7.74953 3.35029 7.74953 3.48779V7.01529C7.23703 7.13029 6.85203 7.58779 6.85203 8.13279C6.85203 8.35779 6.91953 8.56779 7.03203 8.74529L5.45203 10.3278C5.35453 10.4253 5.35453 10.5828 5.45203 10.6803C5.50203 10.7303 5.56453 10.7528 5.62953 10.7528V10.7553ZM7.99953 7.48779C8.35703 7.48779 8.64703 7.77779 8.64703 8.13529C8.64703 8.49279 8.35703 8.78279 7.99953 8.78279C7.64203 8.78279 7.35203 8.49279 7.35203 8.13529C7.35203 7.77779 7.64203 7.48779 7.99953 7.48779Z" fill="#37474F"/>
</g>
<defs>
<clipPath id="clip0_20114_68061">
<rect width="16" height="16" fill="white"/>
</clipPath>
</defs>
</svg>
