<svg width="20" height="20" viewBox="0 0 20 20" fill="none" xmlns="http://www.w3.org/2000/svg">
<g clip-path="url(#clip0_545_9281)">
<path d="M16.9699 10.5892C17.1261 10.4329 17.2139 10.221 17.2139 10C17.2139 9.77903 17.1261 9.56711 16.9699 9.41083L12.2557 4.69667C12.1788 4.61708 12.0869 4.55359 11.9852 4.50992C11.8835 4.46624 11.7742 4.44325 11.6635 4.44229C11.5529 4.44133 11.4432 4.46242 11.3408 4.50432C11.2383 4.54622 11.1453 4.60809 11.067 4.68634C10.9888 4.76458 10.9269 4.85763 10.885 4.96004C10.8431 5.06245 10.822 5.17219 10.823 5.28284C10.824 5.39348 10.847 5.50283 10.8906 5.6045C10.9343 5.70617 10.9978 5.79813 11.0774 5.875L14.369 9.16667H3.33321C3.1122 9.16667 2.90024 9.25447 2.74396 9.41075C2.58768 9.56703 2.49988 9.77899 2.49988 10C2.49988 10.221 2.58768 10.433 2.74396 10.5893C2.90024 10.7455 3.1122 10.8333 3.33321 10.8333H14.369L11.0774 14.125C10.9256 14.2822 10.8416 14.4927 10.8435 14.7112C10.8454 14.9297 10.933 15.1387 11.0875 15.2932C11.242 15.4477 11.451 15.5353 11.6695 15.5372C11.888 15.5391 12.0985 15.4551 12.2557 15.3033L16.9699 10.5892Z" fill="#212121"/>
</g>
<defs>
<clipPath id="clip0_545_9281">
<rect width="20" height="20" fill="white" transform="matrix(0 1 -1 0 20 0)"/>
</clipPath>
</defs>
</svg>
