<svg width="16" height="10" viewBox="0 0 16 10" fill="none" xmlns="http://www.w3.org/2000/svg">
<path d="M7.05801 10C6.91601 10 6.79734 9.952 6.70201 9.856C6.60667 9.76 6.55867 9.641 6.55801 9.499C6.55734 9.357 6.60534 9.23833 6.70201 9.143C6.79867 9.04767 6.91734 9 7.05801 9H8.92301C9.06501 9 9.18367 9.048 9.27901 9.144C9.37434 9.24 9.42234 9.359 9.42301 9.501C9.42367 9.643 9.37567 9.76167 9.27901 9.857C9.18234 9.95233 9.06367 10 8.92301 10H7.05801ZM3.30801 5.5C3.16601 5.5 3.04734 5.452 2.95201 5.356C2.85667 5.26 2.80867 5.141 2.80801 4.999C2.80734 4.857 2.85534 4.73833 2.95201 4.643C3.04867 4.54767 3.16734 4.5 3.30801 4.5H12.673C12.815 4.5 12.9337 4.548 13.029 4.644C13.1243 4.74 13.1723 4.859 13.173 5.001C13.1737 5.143 13.1257 5.26167 13.029 5.357C12.9323 5.45233 12.8137 5.5 12.673 5.5H3.30801ZM0.500007 1C0.358007 1 0.23934 0.952 0.144007 0.856C0.0486736 0.76 0.000673516 0.641 6.84931e-06 0.499C-0.000659817 0.357 0.0473402 0.238333 0.144007 0.143C0.240674 0.0476668 0.35934 0 0.500007 0H15.5C15.642 0 15.7607 0.0480001 15.856 0.144C15.9513 0.24 15.9993 0.359 16 0.501C16.0007 0.643 15.9527 0.761667 15.856 0.857C15.7593 0.952333 15.6407 1 15.5 1H0.500007Z" fill="#212121"/>
</svg>
