<svg width="16" height="16" viewBox="0 0 16 16" fill="none" xmlns="http://www.w3.org/2000/svg">
<path d="M7.9997 0L4.92278 1.84615L7.9997 3.69231V2.46154C11.0489 2.46154 13.5382 4.95077 13.5382 8C13.5382 11.0492 11.0489 13.5385 7.9997 13.5385C4.95047 13.5385 2.46124 11.0492 2.46124 8C2.46124 6.49046 3.00462 5.18769 3.9997 4.192C3.81305 3.70118 3.59247 3.51904 3.13447 3.32738C1.91355 4.54769 1.23047 6.18646 1.23047 8C1.23047 11.72 4.2797 14.7692 7.9997 14.7692C11.7197 14.7692 14.7689 11.72 14.7689 8C14.7689 4.28 11.7197 1.23077 7.9997 1.23077V0ZM6.71108 4.03877C6.18626 4.11428 5.9413 4.23095 5.59601 4.57723L7.15355 7.65415C7.10581 7.76339 7.07969 7.88083 7.07662 8V8.03877L5.0957 10.0185C5.34458 10.5238 5.50646 10.7606 5.98124 10.9046L7.96216 8.92369H7.9997C8.24451 8.92369 8.4793 8.82644 8.65241 8.65333C8.82552 8.48022 8.92278 8.24543 8.92278 8.00062C8.92278 7.576 8.64032 7.22338 8.24955 7.11569L6.71108 4.03877Z" fill="black"/>
</svg>
